<svg xmlns="http://www.w3.org/2000/svg" width="30" height="30" fill="none" viewBox="0 0 30 30">
    <circle cx="15" cy="15" r="15" fill="#41CE75"/>
    <path fill="#fff" stroke="#fff" d="M11.298 19.845h0c.43.42 1.01.655 1.612.655.603 0 1.183-.234 1.613-.655h0l7.66-7.5h0l.006-.006c.2-.204.314-.478.311-.766-.003-.287-.12-.56-.325-.76-.203-.2-.477-.31-.76-.313-.285-.002-.56.104-.767.3h0l-.007.006-7.66 7.5s0 0 0 0c-.017.017-.042.028-.07.028-.03 0-.055-.01-.072-.028l-2.48-2.428h0l-.007-.006c-.207-.196-.482-.303-.766-.3-.284.002-.558.113-.761.313-.205.2-.322.473-.325.76-.003.287.11.562.311.766l.356-.352-.35.358 2.48 2.428z"/>
</svg>
