<svg xmlns="http://www.w3.org/2000/svg" width="741" height="508" fill="none" viewBox="0 0 741 508">
    <path fill="#FFCA76" d="M663.617 275.148H306.281c-13.55 0-24.436-10.433-24.436-23.256V64.828c0-12.896 10.962-23.257 24.436-23.257h357.336c13.55 0 24.436 10.433 24.436 23.257v187.064c0 12.823-10.962 23.256-24.436 23.256z"/>
    <mask id="drz8dsi9ma" width="408" height="235" x="281" y="41" maskUnits="userSpaceOnUse">
        <path fill="#fff" d="M663.617 275.148H306.281c-13.55 0-24.436-10.433-24.436-23.256V64.828c0-12.896 10.962-23.257 24.436-23.257h357.336c13.55 0 24.436 10.433 24.436 23.257v187.064c0 12.823-10.962 23.256-24.436 23.256z"/>
    </mask>
    <g mask="url(#drz8dsi9ma)">
        <path fill="#FFDC9F" d="M328.586 166.039H339.015V284.349H328.586zM376.393 176.327H386.82199999999995V285.291H376.393zM425.418 115.18H435.847V284.711H425.418zM472.769 114.311H483.198V292.898H472.769zM524.915 128.366H535.3439999999999V289.63800000000003H524.915zM577.29 83.737H587.7189999999999V283.04499999999996H577.29zM629.588 109.384H640.0169999999999V284.349H629.588z"/>
        <ellipse fill="#FF8249" rx="4.872" ry="5.084" transform="matrix(.274 -.96173 .96828 .24986 333.819 166.352)"/>
        <ellipse cx="381.57" cy="177.197" fill="#FF8249" rx="5.1" ry="4.854"/>
        <path fill="#FF8249" d="M435.695 115.18c0 2.681-2.283 4.854-5.1 4.854-2.817 0-5.1-2.173-5.1-4.854s2.283-4.854 5.1-4.854c2.817 0 5.1 2.173 5.1 4.854zM483.046 115.18c0 2.681-2.284 4.854-5.101 4.854-2.816 0-5.1-2.173-5.1-4.854s2.284-4.854 5.1-4.854c2.893 0 5.101 2.173 5.101 4.854z"/>
        <ellipse cx="530.168" cy="129.235" fill="#FF8249" rx="5.1" ry="4.854"/>
        <ellipse fill="#FF8249" rx="4.861" ry="5.094" transform="matrix(.1681 -.98577 .98828 .15265 582.481 83.744)"/>
        <ellipse cx="634.841" cy="110.181" fill="#FF8249" rx="5.1" ry="4.854"/>
        <path stroke="#FF8249" stroke-linecap="round" stroke-linejoin="round" stroke-width="6" d="M700.386 45.339l-65.545 64.842-52.375-26.444-52.298 45.498-52.147-14.055h-47.35l-49.101 62.017-47.731-10.795-68.514 45.28"/>
    </g>
    <path fill="#F4B36C" d="M698.939 508H36.262c-14.616 0-26.416-11.23-26.416-25.14s11.8-25.14 26.416-25.14h662.601c14.616 0 26.416 11.23 26.416 25.14.076 13.91-11.8 25.14-26.34 25.14z"/>
    <path fill="#fff" stroke="#0A1F44" stroke-linecap="round" stroke-linejoin="round" stroke-width="2" d="M0 0H115.103V93.894H0z" transform="rotate(180 302.312 237.677)"/>
    <path fill="#fff" stroke="#0A1F44" stroke-linecap="round" stroke-linejoin="round" stroke-width="2" d="M0 0H35.094V93.894H0z" transform="rotate(180 262.292 237.678)"/>
    <path fill="#FFC466" stroke="#0A1F44" stroke-linecap="round" stroke-linejoin="round" stroke-width="2" d="M0 0H15.377V23.546H0z" transform="rotate(180 286.975 202.478)"/>
    <path fill="#0A1F44" d="M513.724 461.633h3.35c.914 0 1.675-.725 1.675-1.594v-4.71c0-.869-.761-1.593-1.675-1.593h-3.35c-.913 0-1.674.724-1.674 1.593v4.71c0 .869.761 1.594 1.674 1.594zM506.949 471.631h10.963c.456 0 .837-.363.837-.797v-.29c0-.435-.381-.797-.837-.797h-10.963c-.456 0-.837.362-.837.797v.29c0 .434.381.797.837.797zM506.949 466.342h10.963c.456 0 .837-.363.837-.797v-.29c0-.435-.381-.797-.837-.797h-10.963c-.456 0-.837.362-.837.797v.29c0 .434.381.797.837.797zM532.604 394.762l5.557-6.665 5.557 6.665h-3.197v6.303h-4.72v-6.303h-3.197z"/>
    <path fill="#fff" stroke="#0A1F44" stroke-linecap="round" stroke-linejoin="round" stroke-width="2" d="M548.21 255.949H613.298V309.56100000000004H548.21z"/>
    <path fill="#0A1F44" d="M564.044 298.477h-6.471c-.913 0-1.675-.725-1.675-1.594v-1.304c0-.87.762-1.594 1.675-1.594h6.471c.913 0 1.675.724 1.675 1.594v1.304c.076.869-.685 1.594-1.675 1.594zM573.864 304.128h-17.356c-.305 0-.533-.218-.533-.507 0-.29.228-.507.533-.507h17.356c.305 0 .533.217.533.507 0 .289-.228.507-.533.507zM573.864 301.157h-17.356c-.305 0-.533-.217-.533-.507 0-.29.228-.507.533-.507h17.356c.305 0 .533.217.533.507 0 .218-.228.507-.533.507z"/>
    <path fill="#fff" stroke="#0A1F44" stroke-linecap="round" stroke-linejoin="round" stroke-width="2" d="M413.771 394.472H502.762V475.325H413.771z"/>
    <path fill="#FFC466" stroke="#0A1F44" stroke-linecap="round" stroke-linejoin="round" stroke-width="2" d="M446.429 394.472H462.796V414.685H446.429z"/>
    <path fill="#0A1F44" d="M490.43 405.991l-5.938-5.796-5.862 5.796h3.35v5.434h5.024v-5.434h3.426z"/>
    <path fill="#0FB763" stroke="#0A1F44" stroke-linecap="round" stroke-linejoin="round" stroke-width="2" d="M55.902 423.524c-.837-4.13-21.696-41.079-14.768-61.292 3.806-11.012-4.644-16.808-4.948-26.806-.61-20.141 13.626-33.689 23.218-17.098s-1.75 24.85 3.502 38.905c5.253 14.055 17.433 13.258 12.18 31.515-5.252 18.185-19.184 34.776-19.184 34.776z"/>
    <path fill="#0A1F44" d="M59.861 430.189c-1.294-35.065-5.177-70.058-11.647-104.544-.153-.797-1.447-.435-1.294.362 6.47 34.414 10.276 69.262 11.57 104.255.077.724 1.371.724 1.371-.073z"/>
    <path fill="#0AEA7F" stroke="#0A1F44" stroke-linecap="round" stroke-linejoin="round" stroke-width="2" d="M99.37 329.05c15.15 4.782 1.751 11.592-6.09 32.313-7.84 20.72 11.343 28.182-2.588 42.237-13.93 14.056-36.54 20.721-36.54 20.721s1.75-33.109 6.927-49.7c5.253-16.591 19.184-19.054 18.27-29.849-.837-10.723 9.592-18.982 20.022-15.722z"/>
    <path fill="#0AEA7F" stroke="#0A1F44" stroke-linecap="round" stroke-linejoin="round" stroke-width="2" d="M41.058 418.525c0-2.463-20.021-6.593-22.61-26.516-2.588-19.852-1.75-15.722-13.093-31.516-11.343-15.794 6.09-41.441 18.27-28.98 12.18 12.462 13.094 28.98 23.523 35.645 10.43 6.593 17.433 13.259 15.682 28.98-1.751 15.722-8.678 28.183-8.678 28.183l-13.094-5.796z"/>
    <path fill="#0A1F44" d="M25.452 360.131c17.357 20.72 24.513 46.875 31.212 72.087.228.797 1.522.435 1.294-.362-6.775-25.43-14.083-51.729-31.592-72.667-.457-.652-1.447.29-.914.942zM86.048 346.366c-9.591 27.893-19.26 56.655-16.747 86.432.076.797 1.37.797 1.37 0-2.512-29.632 7.156-58.322 16.671-86.07.305-.797-.99-1.087-1.294-.362z"/>
    <path fill="#0FB763" stroke="#0A1F44" stroke-linecap="round" stroke-linejoin="round" stroke-width="2" d="M2.08 352.669c3.274-8.622 11.495-7.173 14.084-14.2 2.588-7.173 2.588-9.926 7.536-6.883-10.353-10.505-24.36 6.158-21.62 21.083zM35.272 407.803c-1.142-6.086-4.948-10.506-11.342-14.925-4.264-2.97-5.177-8.332-7.613-14.49.685 2.898 1.218 6.883 2.055 13.693 1.827 13.765 11.952 19.996 18.042 23.329-.228-2.174-.609-4.927-1.142-7.607zM99.37 329.05c-3.045-.942-6.09-.942-8.83-.145 5.405.652.761 6.231 1.066 10.65.38 5.507 8.678 3.623 1.75 21.808 7.765-20.648 21.24-27.459 6.014-32.313z"/>
    <path fill="#1AAA62" d="M15.48 344.047c2.131 4.565 4.872 8.767 8.221 12.606.533.652 1.523-.289.914-.869-3.274-3.767-5.938-7.897-7.994-12.316-.38-.797-1.522-.145-1.141.579zM10.684 347.815c3.12 4.057 6.85 7.607 11.038 10.722.685.507 1.37-.579.685-1.087-4.035-2.97-7.537-6.375-10.582-10.215-.532-.724-1.674-.072-1.141.58zM8.095 352.741c2.36 2.391 4.872 4.565 7.689 6.521 2.969 2.101 6.395 3.767 8.983 6.375.609.58 1.522-.29.913-.869-2.131-2.101-4.796-3.55-7.308-5.217-3.425-2.246-6.47-4.781-9.287-7.679-.685-.58-1.599.29-.99.869zM14.947 368.318c5.024 4.419 10.81 7.607 17.28 9.635.838.218 1.142-.941.38-1.231-6.241-1.956-11.875-4.999-16.67-9.274-.686-.579-1.6.29-.99.87zM12.054 362.232c5.024 4.419 10.81 7.607 17.28 9.636.838.217 1.142-.942.381-1.232-6.242-1.956-11.876-4.999-16.671-9.273-.686-.58-1.6.289-.99.869zM23.625 385.126c5.024 4.202 12.028 5.071 16.9 9.418.609.58 1.599-.362.913-.869-4.872-4.347-11.951-5.216-16.9-9.418-.608-.508-1.598.362-.913.869zM20.732 377.953c5.025 4.203 12.028 5.072 16.9 9.419.61.579 1.599-.362.914-.87-4.872-4.346-11.952-5.216-16.9-9.418-.61-.58-1.599.362-.914.869zM29.106 392.661c4.872 2.535 9.668 5.216 14.312 8.186.685.435 1.37-.652.685-1.086-4.644-2.971-9.364-5.651-14.312-8.187-.761-.435-1.446.652-.685 1.087zM36.566 403.311c3.502 1.086 7.004 2.318 10.506 3.55.837.29 1.142-.942.38-1.232-3.501-1.232-6.927-2.391-10.505-3.55-.837-.217-1.218 1.014-.38 1.232zM26.67 339.99c1.523 5.506 2.208 11.012 1.98 16.736 0 .797 1.294.797 1.37 0 .228-5.796-.457-11.447-1.98-17.026-.304-.869-1.598-.507-1.37.29zM22.026 336.368c1.523 5.506 2.208 11.012 1.98 16.735 0 .797 1.294.797 1.37 0 .228-5.795-.457-11.447-1.98-17.025-.304-.797-1.598-.507-1.37.29zM32.912 352.741c.914 4.492 1.142 8.839 1.142 13.403 0 .797 1.37.797 1.37 0 0-4.637-.228-9.128-1.218-13.693-.228-.869-1.522-.507-1.294.29zM40.906 365.275c0 3.767.152 7.462-1.142 11.085-.305.797.99 1.086 1.294.362 1.37-3.768 1.294-7.535 1.218-11.447 0-.797-1.37-.797-1.37 0zM36.87 360.276c0 3.767.153 7.462-1.141 11.085-.304.797.99 1.086 1.294.362 1.37-3.767 1.294-7.535 1.218-11.447 0-.797-1.37-.797-1.37 0zM45.93 369.26c.837 5.216 0 10.287-2.512 14.997-.38.724.761 1.376 1.142.652 2.74-4.999 3.578-10.361 2.664-15.939-.152-.797-1.446-.507-1.294.29zM49.432 374.621c-.153 5.796-.914 11.592-2.208 17.243-.152.797 1.066 1.159 1.294.362 1.37-5.796 2.132-11.664 2.284-17.605 0-.797-1.294-.797-1.37 0zM54.38 381.286c-.152 5.796-.914 11.592-2.208 17.243-.152.797 1.066 1.159 1.294.362 1.37-5.796 2.132-11.664 2.284-17.605 0-.797-1.37-.797-1.37 0zM54.38 398.384c0 2.681-.533 5.217-1.675 7.68-.304.724.837 1.376 1.142.652 1.218-2.681 1.827-5.434 1.827-8.332 0-.797-1.294-.797-1.294 0zM90.083 333.035c-1.446 3.477-1.827 7.245-3.273 10.722-.305.725.99 1.087 1.294.363 1.446-3.478 1.827-7.245 3.273-10.723.305-.797-.99-1.087-1.294-.362zM84.374 335.716c-.229 2.97-.229 5.868-.153 8.838 0 .797 1.37.797 1.37 0-.152-2.97-.075-5.868.153-8.838 0-.797-1.294-.797-1.37 0zM80.11 348.974c.077 2.608.381 5.071.99 7.607.153.797 1.447.435 1.294-.362-.532-2.391-.913-4.782-.913-7.245-.076-.797-1.37-.797-1.37 0zM75.162 356.943c.457 3.405 1.066 6.738 1.675 10.143.152.797 1.447.435 1.294-.362-.609-3.26-1.142-6.521-1.598-9.781-.076-.797-1.447-.797-1.37 0zM69.834 363.174c1.294 5.868 2.131 11.809 2.664 17.822.076.797 1.37.797 1.37 0-.533-6.085-1.446-12.171-2.74-18.112-.229-.797-1.523-.507-1.294.29zM66.636 369.839c1.066 6.303 2.284 12.534 3.654 18.765.152.797 1.447.434 1.294-.363-1.37-6.23-2.588-12.461-3.654-18.764-.152-.797-1.446-.435-1.294.362zM63.896 375.78c.609 7.535 1.446 14.997 3.806 22.242.228.797 1.523.435 1.294-.362-2.284-7.173-3.121-14.49-3.73-21.952-.076-.797-1.446-.797-1.37.072zM63.896 397.732c.913 3.26 1.979 6.448 3.273 9.636.305.724 1.599.435 1.294-.362-1.218-3.188-2.36-6.376-3.273-9.636-.228-.725-1.447-.435-1.294.362zM84.526 363.246c2.893-1.086 5.481-2.68 7.765-4.709.609-.58-.305-1.449-.914-.869-2.055 1.883-4.491 3.405-7.156 4.419-.837.217-.532 1.449.305 1.159zM81.785 371.723c2.817-1.956 5.481-3.985 8.146-6.013.685-.508-.305-1.377-.914-.87-2.588 2.029-5.252 3.985-7.917 5.869-.609.434 0 1.521.685 1.014zM78.664 383.967c4.492-1.956 8.374-4.782 11.571-8.404.533-.652-.38-1.522-.913-.87-3.121 3.55-6.928 6.231-11.267 8.187-.837.362-.152 1.449.61 1.087zM77.674 393.675c4.873-2.97 9.44-6.376 13.551-10.288.609-.579-.304-1.449-.913-.869-4.035 3.84-8.45 7.172-13.246 10.07-.838.362-.153 1.522.608 1.087zM76.152 399.398c6.547-2.463 12.409-6.013 17.661-10.505.61-.579-.304-1.449-.913-.869-5.025 4.347-10.734 7.752-17.053 10.215-.837.29-.532 1.449.305 1.159zM72.879 408.455c0 .072 0 .072-.077.145-.076.217.077.579.305.724 1.675.797 4.187-1.521 5.557-2.318 3.35-1.884 6.547-3.913 9.744-6.014.685-.434 0-1.594-.685-1.086-2.284 1.521-4.567 2.97-6.927 4.347-1.827 1.086-6.014 2.535-6.7 4.491.381-.724-.913-1.086-1.217-.289zM62.525 408.092c1.066 1.377 2.208 2.609 3.73 3.478.762.435 1.37-.652.686-1.087-1.37-.797-2.36-1.811-3.274-3.043-.456-.652-1.598 0-1.142.652z"/>
    <path fill="#126B3C" d="M53.238 320.356c-.99 2.391-1.903 4.782-2.893 7.173-.304.797.99 1.087 1.294.362.99-2.391 1.903-4.782 2.893-7.172.305-.797-.99-1.087-1.294-.363zM56.435 324.196c-1.142 4.275-2.816 8.259-5.176 11.954-.457.725.685 1.304 1.142.652 2.436-3.839 4.187-7.969 5.328-12.244.153-.797-1.065-1.086-1.294-.362zM59.48 331.369c-1.218 4.492-2.816 8.838-4.72 13.113-.304.724.838 1.377 1.143.652 1.979-4.347 3.577-8.839 4.872-13.476.228-.724-1.066-1.086-1.295-.289zM58.49 348.032c-1.065 2.97-2.664 5.723-4.643 8.187-.533.652.38 1.521.913.869 2.208-2.608 3.883-5.506 5.025-8.694.304-.797-.99-1.159-1.294-.362zM59.404 356.726c-.38 2.898-1.675 5.578-3.806 7.752-.609.58.38 1.521.913.869 2.36-2.463 3.73-5.361 4.187-8.694.153-.724-1.218-.724-1.294.073zM61.383 363.174c-.685 2.391-1.827 4.564-3.425 6.52-.533.652.38 1.522.913.87 1.751-2.174 3.045-4.492 3.807-7.1.228-.725-1.066-1.087-1.294-.29zM48.823 314.705c-.305 3.116-.61 6.231-.914 9.419-.076.797 1.218.797 1.37 0 .305-3.116.61-6.231.914-9.419 0-.797-1.294-.797-1.37 0zM42.961 319.125c0 3.405.61 6.665 1.827 9.853.305.724 1.599.434 1.294-.362-1.218-3.043-1.827-6.231-1.75-9.491 0-.797-1.37-.797-1.37 0zM40.525 328.761c1.827 4.854 4.035 9.563 6.547 14.127.38.725 1.522.073 1.142-.652-2.436-4.492-4.568-9.056-6.395-13.765-.304-.797-1.599-.435-1.294.29zM40.982 342.453c1.979 2.681 4.339 5.072 6.927 7.1.685.508 1.599-.362.914-.869-2.512-2.029-4.796-4.347-6.776-6.883-.38-.652-1.522 0-1.065.652zM46.006 353.466c.837 1.666 2.208 2.97 3.806 3.912.762.435 1.37-.652.686-1.087-1.447-.869-2.589-2.028-3.35-3.477-.38-.725-1.523-.145-1.142.652zM44.255 358.61c2.208 2.463 4.568 4.709 7.08 6.81.685.507 1.599-.362.913-.87-2.588-2.101-4.948-4.347-7.08-6.81-.456-.652-1.446.218-.913.87z"/>
    <path fill="#FF8249" stroke="#0A1F44" stroke-linecap="round" stroke-linejoin="round" stroke-width="2" d="M70.975 413.236h-48.72l9.44 62.089h51.613l9.44-62.089H70.974z"/>
    <path fill="#fff" stroke="#0A1F44" stroke-linecap="round" stroke-linejoin="round" stroke-width="2" d="M70.975 413.236h-21.01l5.328 62.089h28.015l9.44-62.089H70.974z"/>
    <path fill="#1AAA62" d="M91.758 347.742c-1.218 1.377-2.512 2.608-3.959 3.695-.685.507.305 1.449.914.87 1.446-1.16 2.74-2.391 3.958-3.695.533-.58-.38-1.522-.913-.87z"/>
    <path fill="#0AEA7F" stroke="#0A1F44" stroke-linecap="round" stroke-linejoin="round" stroke-width="2" d="M676.482 338.034s-.761 12.316-5.1 37.746c-4.416 25.43-5.634 43.977-5.634 43.977l4.416.652s2.588-33.979 5.176-46.078c4.035-18.547 1.142-36.297 1.142-36.297z"/>
    <path fill="#FF8249" stroke="#0A1F44" stroke-linecap="round" stroke-linejoin="round" stroke-width="2" d="M686.987 410.628h-39.433c-4.339 0-7.612 3.695-6.927 7.68l9.135 53.757c.304 1.884 1.979 3.26 4.034 3.26h38.14c1.979 0 3.654-1.376 4.034-3.26l9.135-53.757c.686-4.057-2.588-7.68-6.927-7.68h-11.191z"/>
    <path fill="#fff" stroke="#0A1F44" stroke-linecap="round" stroke-linejoin="round" stroke-width="2" d="M675.416 410.628H647.63c-4.339 0-7.612 3.695-6.927 7.68l9.135 53.757c.304 1.884 1.979 3.26 4.035 3.26h26.491c1.98 0 3.655-1.376 4.035-3.26l9.135-53.757c.685-4.057-2.588-7.68-6.927-7.68h-11.191z"/>
    <path fill="#0FB763" stroke="#0A1F44" stroke-linecap="round" stroke-linejoin="round" stroke-width="2" d="M684.019 365.42s12.408-5.072 24.208-5.072c9.515 0 24.512 6.231 17.356 8.984-7.155 2.753-16.747-.797-17.052 3.115-.304 3.913 19.869-2.753 22.686 1.956 2.816 4.71 12.408 7.825 6.547 12.534-5.862 4.709-21.696-5.868-23.904-1.159-2.208 4.709 25.426 4.709 24.208 11.374-1.218 6.666 1.523 12.1-.609 16.446-2.208 4.275-14.312-.796-20.782-.796-6.547 0-13.018-3.116-9.288-8.622 3.73-5.506 5.862-12.099-.304-9.781-6.243 2.319-4.948 11.737-15.225 4.71-10.277-7.028 2.74-13.331 1.827-17.606-1.066-5.506-7.156 3.116-12.333 3.55-9.211.725-12.332-.796-9.211-8.186 3.121-7.535 5.405-7.1 11.876-11.447z"/>
    <path fill="#0FB763" fill-rule="evenodd" d="M675.797 378.026c-.678-1.485-1.229-2.774-1.717-3.915-2.416-5.649-3.281-7.672-10.311-11.951 0 0-16.063-6.086-31.288-6.086-12.332 0-31.744 7.462-22.457 10.722 4.254 1.506 9.207 1.42 13.343 1.348 4.819-.084 8.529-.148 8.734 2.347.178 2.17-5.445 1.595-11.845.941-7.278-.744-15.56-1.591-17.464 1.378-1.196 1.865-3.388 3.528-5.492 5.123-4.188 3.177-8.025 6.088-2.958 9.801 4.082 2.992 9.171.504 13.448-1.587 3.699-1.807 6.789-3.318 8.096-.731 1.316 2.607-3.752 4.201-9.361 5.966-6.394 2.012-13.491 4.245-12.64 8.451.736 3.634.375 6.977.046 10.028-.386 3.579-.729 6.757.792 9.534 1.835 3.352 9.135 1.935 16.315.541 3.837-.745 7.64-1.483 10.557-1.483 8.374 0 16.9-3.695 12.028-10.216-4.872-6.52-7.613-14.417.381-11.664 2.815.986 4.444 2.985 5.934 4.815 2.782 3.414 5.081 6.236 13.706.764 13.246-8.405 3.197-17.678-2.436-20.938-5.633-3.26 13.246-1.377 14.083 6.955.838 8.332 14.541-1.232 10.506-10.143zm-53.593 6.52c-2.969 1.884-4.72-2.463-.457-4.202 3.426-1.376 3.426 2.391.457 4.202zm25.579-7.824c-3.654-.145-2.513-4.782 2.207-3.767 3.807.796 1.447 3.912-2.207 3.767z" clip-rule="evenodd"/>
    <path fill="#0A1F44" d="M674.08 374.111l.919-.393-.919.393zm1.717 3.915l.911-.412-.001-.003-.91.415zm-12.028-15.866l.52-.855c-.053-.032-.108-.059-.166-.081l-.354.936zm-53.745 4.636l.334-.942-.003-.001-.331.943zm13.343 1.348l-.018-1 .018 1zm8.734 2.347l.996-.082-.996.082zm-11.845.941l.101-.995-.101.995zm-17.464 1.378l-.842-.54.842.54zm-5.492 5.123l-.604-.796.604.796zm-2.958 9.801l-.591.807.591-.807zm13.448-1.587l.439.899-.439-.899zm8.096-.731l.892-.451-.892.451zm-9.361 5.966l.3.954-.3-.954zm-12.64 8.451l-.98.199.98-.199zm.046 10.028l-.994-.107.994.107zm.792 9.534l.877-.481-.877.481zm16.315.541l-.132-.991c-.02.002-.039.005-.059.009l.191.982zm0 0l.132.991c.02-.002.039-.006.058-.009l-.19-.982zm22.585-11.699l.801-.598-.801.598zm.381-11.664l.33-.944-.005-.001-.325.945zm5.934 4.815l.776-.632-.776.632zm13.706.764l-.536-.845.536.845zm-31.44-17.606l-.521-.853-.015.009.536.844zm-.457-4.202l-.372-.928-.005.002.377.926zm26.036-3.622l.039-.999-.039.999zm2.207-3.767l-.21.977.005.001.205-.978zm23.171 1.549c.487 1.141 1.043 2.44 1.726 3.937l1.82-.83c-.673-1.473-1.22-2.752-1.708-3.893l-1.838.786zm-9.912-11.49c3.482 2.119 5.337 3.622 6.625 5.232 1.296 1.621 2.066 3.405 3.287 6.258l1.838-.786c-1.195-2.795-2.065-4.848-3.563-6.721-1.506-1.883-3.599-3.531-7.147-5.692l-1.04 1.709zm-30.768-5.94c7.494 0 15.224 1.5 21.105 3.011 2.934.755 5.397 1.509 7.124 2.074.864.283 1.543.518 2.005.682.231.081.407.146.525.189l.133.049.032.012.008.003.002.001.354-.935.354-.936h-.001l-.003-.001-.01-.004-.037-.014-.142-.052c-.125-.046-.308-.113-.547-.197-.476-.169-1.17-.41-2.051-.698-1.76-.576-4.265-1.343-7.249-2.11-5.957-1.531-13.87-3.074-21.602-3.074v2zm-22.126 8.779c-1.099-.386-1.549-.765-1.699-.997-.06-.092-.069-.155-.066-.211.003-.068.03-.192.144-.379.24-.393.759-.895 1.615-1.461.837-.555 1.92-1.122 3.195-1.675 5.123-2.225 12.924-4.056 18.937-4.056v-2c-6.319 0-14.39 1.9-19.734 4.221-1.343.583-2.538 1.204-3.503 1.842-.945.627-1.751 1.323-2.217 2.088-.24.392-.411.838-.435 1.322-.024.498.111.972.385 1.396.518.801 1.493 1.368 2.716 1.797l.662-1.887zm12.994 1.291c-4.173.073-8.938.144-12.991-1.29l-.668 1.885c4.455 1.577 9.596 1.476 13.694 1.405l-.035-2zm9.748 3.265c-.074-.909-.489-1.632-1.165-2.145-.632-.481-1.444-.742-2.288-.897-1.676-.308-3.927-.264-6.295-.223l.035 2c2.451-.043 4.465-.073 5.899.19.712.131 1.168.316 1.439.522.228.174.354.379.382.717l1.993-.164zm-12.943 2.018c3.175.324 6.252.641 8.512.593 1.115-.023 2.153-.135 2.931-.446.397-.159.801-.399 1.096-.776.314-.402.446-.883.404-1.389l-1.993.164c.002.028-.002.031.002.018l.007-.018.005-.008c-.004.004-.06.07-.265.152-.426.171-1.16.281-2.229.304-2.107.044-5.041-.254-8.267-.584l-.203 1.99zm-16.52.923c.284-.444.882-.852 1.938-1.15 1.04-.293 2.385-.439 3.957-.471 3.145-.065 6.968.324 10.625.698l.203-1.99c-3.62-.37-7.577-.776-10.869-.708-1.646.034-3.183.187-4.459.546-1.26.355-2.411.954-3.079 1.995l1.684 1.08zm-5.73 5.38c2.057-1.56 4.417-3.334 5.73-5.38l-1.684-1.08c-1.08 1.684-3.104 3.236-5.254 4.867l1.208 1.593zm-2.971 8.198c-1.185-.869-1.714-1.596-1.909-2.167-.179-.527-.117-1.049.208-1.657.342-.64.953-1.325 1.793-2.076.834-.745 1.825-1.498 2.879-2.298l-1.208-1.593c-1.039.788-2.099 1.591-3.004 2.4-.899.804-1.716 1.675-2.224 2.624-.524.981-.733 2.081-.337 3.244.38 1.118 1.271 2.148 2.62 3.136l1.182-1.613zm12.418-1.679c-2.162 1.057-4.394 2.142-6.573 2.621-2.145.471-4.112.327-5.845-.942l-1.182 1.613c2.349 1.721 4.968 1.829 7.457 1.282 2.455-.539 4.907-1.744 7.021-2.777l-.878-1.797zm9.427-.284c-.424-.84-1.042-1.427-1.845-1.72-.77-.281-1.6-.251-2.395-.092-1.554.312-3.384 1.215-5.187 2.096l.878 1.797c1.896-.927 3.46-1.683 4.703-1.932.603-.121 1.023-.097 1.315.01.259.095.517.289.746.743l1.785-.902zm-9.953 7.371c2.77-.872 5.541-1.739 7.442-2.736.942-.493 1.803-1.084 2.321-1.83.271-.389.46-.838.5-1.343.041-.506-.076-.998-.31-1.462l-1.785.902c.095.188.108.315.102.402-.007.089-.042.205-.149.36-.237.341-.746.748-1.608 1.2-1.706.894-4.274 1.706-7.113 2.599l.6 1.908zm-11.96 7.299c-.146-.723.031-1.361.527-2.001.523-.674 1.391-1.331 2.572-1.97 2.365-1.28 5.634-2.313 8.861-3.328l-.6-1.908c-3.167.996-6.643 2.086-9.213 3.477-1.286.696-2.432 1.512-3.2 2.503-.795 1.025-1.186 2.243-.907 3.624l1.96-.397zm.06 10.333c.328-3.038.711-6.527-.06-10.333l-1.96.397c.701 3.462.362 6.658.032 9.722l1.988.214zm.675 8.946c-1.342-2.451-1.069-5.289-.675-8.946l-1.988-.214c-.378 3.501-.79 7.019.909 10.121l1.754-.961zm15.247.04c-3.615.702-7.15 1.386-10.008 1.492-1.427.053-2.611-.043-3.515-.314-.889-.268-1.429-.679-1.724-1.218l-1.754.961c.622 1.137 1.683 1.806 2.903 2.172 1.206.362 2.639.454 4.164.397 3.046-.113 6.75-.834 10.315-1.526l-.381-1.964zm.059-.009l.264 1.982-.264-1.982zm10.689-1.492c-3.035 0-6.946.763-10.748 1.501l.381 1.964c3.873-.752 7.568-1.465 10.367-1.465v-2zm11.227-8.617c1.111 1.486 1.348 2.658 1.173 3.558-.177.914-.825 1.787-1.979 2.568-2.336 1.581-6.332 2.491-10.421 2.491v2c4.285 0 8.739-.938 11.542-2.835 1.415-.957 2.509-2.231 2.821-3.843.316-1.627-.208-3.362-1.534-5.136l-1.602 1.197zm1.507-13.208c-2.037-.702-3.744-.866-4.941-.178-1.322.761-1.556 2.24-1.392 3.597.168 1.391.776 3.023 1.615 4.681.847 1.674 1.964 3.439 3.211 5.108l1.602-1.197c-1.189-1.592-2.242-3.259-3.029-4.814-.795-1.57-1.286-2.962-1.413-4.017-.132-1.088.144-1.474.404-1.624.385-.222 1.333-.34 3.292.334l.651-1.89zm6.385 5.128c-1.479-1.814-3.266-4.037-6.38-5.127l-.661 1.888c2.517.881 3.987 2.658 5.49 4.502l1.551-1.263zm12.394.551c-4.263 2.705-6.697 3.176-8.289 2.819-1.604-.359-2.664-1.601-4.105-3.37l-1.551 1.263c1.341 1.646 2.821 3.522 5.219 4.059 2.408.54 5.437-.315 9.798-3.082l-1.072-1.689zm-2.401-19.228c2.749 1.591 6.44 4.584 7.875 8.057.7 1.694.852 3.47.132 5.289-.729 1.841-2.403 3.85-5.606 5.882l1.072 1.689c3.421-2.17 5.458-4.472 6.394-6.835.945-2.386.717-4.707-.144-6.789-1.686-4.081-5.837-7.354-8.721-9.024l-1.002 1.731zm15.579 5.99c-.249-2.479-1.833-4.385-3.756-5.771-1.928-1.39-4.313-2.347-6.448-2.92-2.104-.564-4.122-.796-5.319-.613-.3.046-.65.132-.948.317-.329.205-.704.621-.65 1.24.043.493.35.852.573 1.064.252.24.583.47.969.693l1.002-1.731c-.318-.184-.499-.322-.59-.408-.119-.114.017-.041.039.208.032.375-.213.587-.285.632-.04.025-.003-.008.193-.038.785-.12 2.482.028 4.498.568 1.986.533 4.125 1.405 5.797 2.61 1.676 1.208 2.766 2.662 2.936 4.349l1.989-.2zm8.6-9.631c1.756 3.879-.31 8.041-3.146 10.35-1.42 1.156-2.825 1.667-3.785 1.569-.445-.045-.787-.216-1.049-.519-.274-.319-.529-.865-.62-1.769l-1.989.2c.118 1.178.475 2.156 1.094 2.875.633.733 1.467 1.112 2.362 1.203 1.718.174 3.643-.701 5.25-2.008 3.215-2.618 5.984-7.692 3.705-12.725l-1.822.824zm-53.218 5.264c-.56.355-.915.33-1.074.277-.159-.052-.3-.185-.362-.425-.112-.434.065-1.538 1.893-2.284l-.755-1.852c-2.435.993-3.514 2.932-3.074 4.636.213.828.8 1.537 1.672 1.825.87.287 1.848.098 2.772-.488l-1.072-1.689zm.452-2.43c.744-.299 1.082-.224 1.165-.188.013.005.078.014.09.223.03.522-.42 1.61-1.692 2.386l1.042 1.707c1.697-1.035 2.731-2.737 2.647-4.207-.045-.787-.436-1.575-1.294-1.946-.787-.339-1.734-.22-2.703.169l.745 1.856zm25.702-5.549c-.707-.028-1-.262-1.103-.398-.098-.129-.138-.314-.044-.551.178-.447 1.044-1.285 3.105-.842l.42-1.955c-2.658-.572-4.723.402-5.383 2.056-.324.814-.26 1.751.308 2.501.564.742 1.498 1.143 2.618 1.187l.079-1.998zm1.963-1.79c.848.178 1.094.438 1.137.505.012.019.009.019.009.021-.001.014-.011.075-.08.179-.319.481-1.429 1.148-3.029 1.085l-.079 1.998c2.055.082 3.951-.737 4.774-1.977.442-.666.615-1.562.09-2.383-.47-.736-1.357-1.164-2.412-1.385l-.41 1.957z"/>
    <path fill="#0AEA7F" stroke="#0A1F44" stroke-linecap="round" stroke-linejoin="round" stroke-width="2" d="M669.326 378.098s9.516.508 16.063 4.637c5.253 3.333 10.277 13.331 4.872 12.896-5.405-.435-8.831-6.448-11.114-3.622-2.208 2.825 12.408 4.854 11.495 9.418-.914 4.564 2.74 10.288-3.045 11.737-5.71 1.521-7.156-10.868-10.887-8.114-3.654 2.825 9.821 11.302 5.634 15.866-4.187 4.637-5.557 9.708-9.059 12.244-3.502 2.536-7.461-5.579-11.115-7.825-3.654-2.246-4.948-6.158-.609-9.78 4.263-3.55 7.765-6.593 3.045-7.028-4.643-.362-7.003 6.665-8.982-2.246-1.904-8.911 8.526-9.201 10.353-12.678 2.283-4.565-5.634-.145-8.679-1.667-5.405-2.68-6.394-4.926-.761-9.418 5.862-4.565 6.928-3.405 12.789-4.42z"/>
    <path fill="#086D38" d="M685.313 367.955c9.972.653 18.041 10.506 24.055 17.171 3.578 3.985 7.08 8.187 10.734 12.171 3.959 4.42 7.841 9.057 12.18 13.186l.914-.869c-9.973-8.042-18.955-16.664-27.025-26.444-6.318-7.607-13.474-14.2-24.056-15.504-.837-.073-.837 1.159 0 1.304 11.191 1.304 18.194 9.056 24.665 17.025 7.461 9.129 16.215 17.026 25.426 24.488.609.507 1.599-.29.914-.869-4.568-4.275-8.679-9.201-12.866-13.838-4.034-4.492-7.917-9.201-12.104-13.693-5.861-6.303-13.474-14.707-22.99-15.287-.685-.145-.685 1.159.153 1.159zM705.258 363.971c3.882 0 7.841.434 11.571 1.594.913.289 2.284.797.837 1.738-.38.29-2.284.073-2.816.073l-6.243.217c-.837 0-.837 1.304 0 1.304 3.121-.145 6.928.29 9.973-.434 1.142-.29 2.207-1.015 1.751-2.246-.457-1.522-3.35-1.956-4.644-2.246-3.426-.87-6.851-1.232-10.353-1.232-.99-.072-.99 1.232-.076 1.232zM720.559 377.012c1.675-.218 3.959-.87 5.709-.652 2.741.289 2.056 2.028 3.122 3.477.837 1.159 2.131 1.304 3.197 2.101 1.218.435 1.218 1.522 0 3.188-.761 0-1.523-.145-2.208-.29-1.142-.217-2.207-.507-3.273-.869-.838-.29-1.142.942-.381 1.231 2.056.652 6.395 2.246 8.374.58 1.37-1.087.761-2.97-.381-4.057-1.446-1.304-2.968-1.304-4.034-3.115-.457-.87-.762-2.246-1.599-2.898-2.055-1.594-6.318-.218-8.526 0-.837.144-.837 1.449 0 1.304zM710.663 403.818c-1.218 2.101-1.294 4.129 1.37 4.999 1.903.652 4.111.579 6.09 1.014 2.893.652 5.557 1.666 8.222 2.971.761.362 1.446-.725.685-1.087-2.36-1.159-4.872-2.101-7.46-2.826-1.98-.507-10.049-.507-7.765-4.419.456-.725-.685-1.377-1.142-.652zM703.735 391.864c-1.522.289-2.969.869-4.187 1.811-1.294.942-3.426 4.492-5.481 2.898-.685-.507-1.599.362-.913.869 1.294 1.015 2.892.942 4.263 0 .837-.579 1.446-1.376 2.131-2.101 1.294-1.231 2.741-1.956 4.568-2.318.761-.145.456-1.377-.381-1.159zM728.933 395.631c4.187-.145 4.568 7.245 5.253 10.071.152.796 1.446.434 1.294-.363-.838-3.477-1.142-11.229-6.547-11.012-.837.072-.837 1.304 0 1.304z"/>
    <path fill="#15AD61" d="M658.592 401.717c-1.294 1.376-1.294 3.767.381 4.926 1.599 1.16 3.882.652 4.948-.942.457-.652-.685-1.304-1.142-.652-.609.87-2.055 1.232-2.969.58-.989-.652-1.065-2.173-.228-3.043.533-.579-.381-1.449-.99-.869zM686.607 402.804c.685 1.159 1.446 2.463 1.142 3.767-.153.579-.457 1.087-.99 1.376-.685.29-1.599-.072-1.675-.797-.076-.796-1.37-.796-1.37 0 .152 1.957 2.664 2.898 4.187 1.594 2.132-1.811.99-4.564-.152-6.593-.381-.724-1.599-.072-1.142.653zM680.136 389.328c1.827-1.014 3.502 1.449 5.177 1.884.837.217 2.055.072 2.588-.725.609-1.087-.533-2.028-1.294-2.68-1.218-1.087-2.665-1.957-4.187-2.681-.761-.362-1.447.724-.685 1.087 1.294.579 2.512 1.304 3.578 2.173.228.145.989.725 1.065.942.457 1.449-1.37.29-1.75.072-1.599-1.014-3.198-2.318-5.177-1.231-.685.507-.076 1.594.685 1.159zM658.136 383.387c-1.371 1.522-2.893 3.985-.838 5.579 1.98 1.594 5.71 1.521 8.146 1.304.837-.073.837-1.377 0-1.304-1.751.217-3.502.145-5.177-.218-.38-.072-.685-.145-1.066-.289-.837-.29-1.141-.435-1.37-1.304-.304-1.232.457-2.029 1.218-2.971.533-.507-.38-1.449-.913-.797zM663.008 418.38c-1.218 1.304-.99 2.971.228 4.275 1.066 1.159 2.664 1.521 3.806 2.535.99 1.015 1.142 2.536 2.284 3.406 1.294 1.086 3.654 1.014 5.024.072 1.98-1.304 1.447-4.419 3.35-5.651.685-.435 0-1.594-.685-1.087-2.208 1.449-1.599 5.361-4.415 6.086-2.893.724-3.122-2.318-4.568-3.767-1.142-1.087-6.09-2.826-3.959-5.072.457-.507-.456-1.376-1.065-.797z"/>
    <path fill="#15AD61" d="M671.915 379.91c-2.056 14.997-.838 29.849-.686 44.846 0 .797 1.218.797 1.371 0 1.522-14.418 2.131-28.98 2.207-43.47 0-.797-1.294-.797-1.37 0 0 14.49-.685 29.052-2.208 43.47h1.371c-.076-14.997-1.371-29.922.685-44.846.076-.797-1.218-.797-1.37 0z"/>
    <path fill="#086D38" d="M660.114 362.087c-13.094.435-23.751 11.519-32.277 19.706-11.267 10.795-21.544 22.677-29.69 35.863-.456.724.686 1.376 1.142.652 7.765-12.389 17.281-23.691 27.862-33.979 4.949-4.782 9.973-9.781 15.606-13.91 4.72-3.478 11.267-6.811 17.357-7.028.837-.072.837-1.376 0-1.304z"/>
    <path fill="#086D38" d="M658.136 360.638c-13.475 1.304-23.371 12.099-31.973 20.938-10.734 11.085-20.478 22.749-28.091 36.007-.38.725.761 1.377 1.142.652 7.232-12.534 16.291-23.691 26.34-34.196 4.72-4.926 9.363-10.505 14.997-14.49 4.948-3.477 11.266-7.027 17.432-7.607 1.066-.072 1.066-1.376.153-1.304zM618.246 360.058c-1.827.29-7.994 2.826-5.634 5.289 1.295 1.377 4.796.87 6.471.942 3.654.145 7.384 0 11.038-.29.838-.072.838-1.304 0-1.304-3.501.29-6.927.435-10.429.29-1.522-.072-3.958.29-4.948-1.014-.761-1.087-.228-1.304.99-1.956.837-.435 1.827-.725 2.816-.87.914 0 .533-1.231-.304-1.087zM656.156 377.301c1.675-.217 3.274.29 4.492 1.449.609.58 1.522-.362.913-.869-1.598-1.449-3.654-2.029-5.785-1.739-.838 0-.457 1.232.38 1.159zM671.305 374.911c-.837-2.101-2.055-3.985-3.73-5.652-.609-.579-1.522.29-.913.87 1.522 1.449 2.664 3.115 3.349 5.071.305.797 1.599.507 1.294-.289zM632.024 393.53c3.807-.724 7.004 1.232 9.364 3.912 1.218 1.377 2.284 3.043 4.187 3.695 4.187 1.449 7.308-2.318 9.211-5.216.457-.725-.685-1.304-1.142-.652-1.827 2.898-5.024 6.665-8.906 3.84-1.675-1.232-2.741-3.188-4.416-4.492-2.512-1.956-5.405-2.898-8.602-2.246-.914.072-.533 1.304.304 1.159zM624.183 400.775c.381 1.884 1.066 3.477 2.208 5.071.609.87 1.294 1.594 1.903 2.464.533.652.914 1.304 1.142 2.101.685 1.883-.152 2.898-2.588 3.115-.838-.29-1.142.942-.381 1.232 2.436.941 4.492-1.087 4.416-3.405-.077-1.739-1.066-3.043-2.056-4.347-1.599-2.029-2.893-3.985-3.426-6.521-.076-.869-1.37-.507-1.218.29z"/>
    <path fill="#0A1F44" stroke="#0A1F44" stroke-linecap="round" stroke-linejoin="round" stroke-width="2" d="M589.089 329.412l67.753 160.403h-13.551l-82.749-160.403h28.547zM411.487 329.412l-67.752 160.403h13.551l82.749-160.403h-28.548zM116.575 455.402H276.668V467.284H116.575z"/>
    <path fill="#0A1F44" stroke="#0A1F44" stroke-linecap="round" stroke-linejoin="round" stroke-width="2" d="M268.294 422.51h-19.869l32.963 63.9c1.066 2.101 3.349 3.405 5.786 3.405v0c4.567 0 7.688-4.419 6.013-8.404l-24.893-58.901zM159.662 345.134l-57.475 136.205c-1.675 4.057 1.447 8.404 6.014 8.404v0c2.436 0 4.72-1.304 5.786-3.405l72.852-141.204h-27.177z"/>
    <path fill="#FF4F00" stroke="#0A1F44" stroke-linecap="round" stroke-linejoin="round" stroke-width="2" d="M142.838 401.717v19.199c0 .869.762 1.521 1.599 1.521h135.352v-20.793H142.838v.073z"/>
    <path fill="#FF4F00" stroke="#0A1F44" stroke-linecap="round" stroke-linejoin="round" stroke-width="2" d="M151.974 245.661h-49.558l46.665 156.056h59.683l-43.849-146.782c-1.599-5.507-6.927-9.274-12.941-9.274z"/>
    <path fill="#FF4F00" stroke="#0A1F44" stroke-linecap="round" stroke-linejoin="round" stroke-width="2" d="M142.838 401.717v19.199c0 .869.762 1.521 1.599 1.521h83.51v-20.793h-85.109v.073z"/>
    <path fill="#FF4F00" stroke="#0A1F44" stroke-linecap="round" stroke-linejoin="round" stroke-width="2" d="M109.571 245.661h-7.155l46.665 156.056h17.28l-43.848-146.782c-1.599-5.507-6.928-9.274-12.942-9.274z"/>
    <path fill="#0A1F44" stroke="#0A1F44" stroke-linecap="round" stroke-linejoin="round" stroke-width="2" d="M156.922 369.984l-10.962 21.228-13.855-46.368h17.28l7.537 25.14z"/>
    <path fill="#FFC392" stroke="#0A1F44" stroke-linecap="round" stroke-linejoin="round" stroke-width="2" d="M345.562 290.362l-46.97-3.405v22.532h59.683v-6.086c0-6.81-5.557-12.534-12.713-13.041z"/>
    <path fill="#FFC392" stroke="#0A1F44" stroke-linecap="round" stroke-linejoin="round" stroke-width="2" d="M336.198 288.479H302.322c-2.055 0-3.73 1.594-3.73 3.55v13.982c0 1.956 1.675 3.55 3.73 3.55h1.98c7.079 0 13.246-3.912 16.138-9.563h15.682c3.35 0 6.014-2.608 6.014-5.723.076-3.261-2.664-5.796-5.938-5.796z"/>
    <path fill="#fff" stroke="#0A1F44" stroke-linecap="round" stroke-linejoin="round" stroke-width="2" d="M207.165 309.561V268.7l104.597 14.345v26.516H207.165z"/>
    <path fill="#0A1F44" stroke="#0A1F44" stroke-linecap="round" stroke-linejoin="round" stroke-width="2" d="M223.532 270.946l-16.367-2.246v40.861h29.689l-13.322-38.615z"/>
    <path fill="#0AEA7F" stroke="#0A1F44" stroke-linecap="round" stroke-linejoin="round" stroke-width="2" d="M404.407 476.412l62.348-49.845c4.034-3.188 9.896-3.188 13.931.072v0c4.567 3.695 5.1 10.143 1.218 14.49l-40.728 45.716c-2.664 2.97-7.079 3.84-10.733 2.101l-26.036-12.534z"/>
    <path fill="#FF8249" stroke="#0A1F44" stroke-linecap="round" stroke-linejoin="round" stroke-width="2" d="M441.329 446.853l-.99 1.883-17.128 32.748-4.34 8.331-163.594-77.448-22.458-10.65-10.048-4.709 22.457-42.963 196.101 92.808z"/>
    <path fill="#0A1F44" stroke="#0A1F44" stroke-linecap="round" stroke-linejoin="round" stroke-width="2" d="M285.651 401.717v10.65h-30.374l-22.458-10.65h52.832z"/>
    <path fill="#fff" stroke="#0A1F44" stroke-linecap="round" stroke-linejoin="round" stroke-width="2" d="M237.539 353.755l-17.433-58.321c6.623-3.116 11.039-9.853 10.43-17.461-.609-7.607-6.471-14.055-14.312-15.866-.076 0-.076 0-.152-.072-3.731-.797-7.004-2.826-9.212-5.796-4.872-6.521-12.865-10.65-21.619-10.65h-21.468c-21.848 0-37.606 19.923-31.668 39.919l20.401 68.247 4.949 16.664c5.557 18.547 23.294 31.298 43.544 31.298h50.928l-14.388-47.962z"/>
    <path fill="#FF8249" stroke="#0A1F44" stroke-linecap="round" stroke-linejoin="round" stroke-width="2" d="M336.046 388.821v100.922h-41.564c-4.873 0-8.831-3.768-8.831-8.404v-79.695h-84.652c-20.25 0-37.987-12.751-43.544-31.298l-.305-1.014c-2.36-7.824 25.426-15.649 63.185-15.649h78.866c20.326.072 36.845 15.794 36.845 35.138z"/>
    <path fill="#0AEA7F" stroke="#0A1F44" stroke-linecap="round" stroke-linejoin="round" stroke-width="2" d="M366.345 479.455c0 2.825-1.219 5.434-3.198 7.317-1.979 1.884-4.643 3.043-7.612 3.043h-61.053c-4.873 0-8.831-3.767-8.831-8.404V457.43l50.395 8.332 21.392 3.55c5.176.869 8.907 5.144 8.907 10.143z"/>
    <path fill="#FF8249" fill-rule="evenodd" d="M222.542 305.504H238.3c4.644 0 8.45 3.623 8.45 8.042v13.693c0 4.419-3.806 8.042-8.45 8.042h-15.758c-4.643 0-8.45-3.623-8.45-8.042v-13.693c0-4.419 3.807-8.042 8.45-8.042zm12.637 24.56c3.35 0 6.09-2.608 6.09-5.795v-7.753c0-3.187-2.74-5.795-6.09-5.795h-9.515c-3.35 0-6.09 2.608-6.09 5.795v7.753c0 3.187 2.74 5.795 6.09 5.795h9.515z" clip-rule="evenodd"/>
    <path fill="#0A1F44" d="M238.3 304.504h-15.758v2H238.3v-2zm9.45 9.042c0-5.018-4.301-9.042-9.45-9.042v2c4.139 0 7.45 3.221 7.45 7.042h2zm0 13.693v-13.693h-2v13.693h2zm-9.45 9.042c5.149 0 9.45-4.024 9.45-9.042h-2c0 3.821-3.311 7.042-7.45 7.042v2zm-15.758 0H238.3v-2h-15.758v2zm-9.45-9.042c0 5.018 4.302 9.042 9.45 9.042v-2c-4.138 0-7.45-3.221-7.45-7.042h-2zm0-13.693v13.693h2v-13.693h-2zm9.45-9.042c-5.148 0-9.45 4.024-9.45 9.042h2c0-3.821 3.312-7.042 7.45-7.042v-2zm17.727 19.765c0 2.589-2.245 4.795-5.09 4.795v2c3.855 0 7.09-3.009 7.09-6.795h-2zm0-7.753v7.753h2v-7.753h-2zm-5.09-4.795c2.845 0 5.09 2.206 5.09 4.795h2c0-3.786-3.235-6.795-7.09-6.795v2zm-9.515 0h9.515v-2h-9.515v2zm-5.09 4.795c0-2.589 2.245-4.795 5.09-4.795v-2c-3.855 0-7.09 3.009-7.09 6.795h2zm0 7.753v-7.753h-2v7.753h2zm5.09 4.795c-2.845 0-5.09-2.206-5.09-4.795h-2c0 3.786 3.235 6.795 7.09 6.795v-2zm9.515 0h-9.515v2h9.515v-2z"/>
    <path fill="#FFC392" stroke="#0A1F44" stroke-linecap="round" stroke-linejoin="round" stroke-width="2" d="M204.196 303.91h-9.211c-5.862 0-10.658 4.565-10.658 10.143v13.258c0 5.579 4.796 10.143 10.658 10.143h8.069c5.862 0 10.658-4.564 10.658-10.143v-14.345c0-4.926-4.263-9.056-9.516-9.056z"/>
    <path fill="#FFC392" d="M184.327 311.59v33.544h26.796c5.025 0 9.136-3.912 9.136-8.694v-13.693h2.588c2.208 0 4.035-1.739 4.035-3.84v-3.477c0-2.101-1.827-3.84-4.035-3.84h-24.208"/>
    <path stroke="#0A1F44" stroke-linecap="round" stroke-linejoin="round" stroke-width="2" d="M184.327 311.59v33.544h26.796c5.025 0 9.136-3.912 9.136-8.694v-13.693h2.588c2.208 0 4.035-1.739 4.035-3.84v-3.477c0-2.101-1.827-3.84-4.035-3.84h-24.208"/>
    <path fill="#fff" d="M163.012 276.597l-13.094 31.298c-.761 1.884.457 3.985 2.512 4.347l10.582 1.811 9.363 1.594 12.028 2.101 5.177.87v26.516h-58.237c-16.824 0-29.384-14.635-26.035-30.284l8.983-41.948c3.426-15.866 18.042-27.241 35.094-27.241h13.627"/>
    <path stroke="#0A1F44" stroke-linecap="round" stroke-linejoin="round" stroke-width="2" d="M163.012 276.597l-13.094 31.298c-.761 1.884.457 3.985 2.512 4.347l10.582 1.811 9.363 1.594 12.028 2.101 5.177.87v26.516h-58.237c-16.824 0-29.384-14.635-26.035-30.284l8.983-41.948c3.426-15.866 18.042-27.241 35.094-27.241h13.627"/>
    <path fill="#FF8249" stroke="#0A1F44" stroke-linecap="round" stroke-linejoin="round" stroke-width="2" d="M261.443 343.178h-13.931c-8.07 0-14.693-6.303-14.693-13.983v-26.082c0-2.318 1.98-4.202 4.416-4.202h34.485c2.436 0 4.415 1.884 4.415 4.202v26.082c-.076 7.68-6.623 13.983-14.692 13.983z"/>
    <path fill="#EEF5FF" d="M254.744 294.13c.076.579-.533 1.014-1.066.652-2.284-1.449-6.471-4.927-6.471-10.216 0-6.085 5.405-8.404 5.405-14.417 0-4.347-1.37-7.607-2.36-9.418-.304-.508.305-1.015.838-.725 2.892 1.521 8.297 5.216 8.297 11.809 0 5.217-5.633 8.187-5.633 13.041-.076 4.42.609 7.245.99 9.274z"/>
    <path fill="#0A1F44" stroke="#0A1F44" stroke-linecap="round" stroke-linejoin="round" stroke-width="2" d="M163.012 276.597l-.076 37.456-10.582-1.811c-2.131-.362-3.349-2.463-2.512-4.347l13.17-31.298z"/>
    <path fill="#FF8249" stroke="#0A1F44" stroke-linecap="round" stroke-linejoin="round" stroke-width="2" d="M326.759 304.707H417.121V309.489H326.759z"/>
    <path fill="#FF8249" stroke="#0A1F44" stroke-linecap="round" stroke-linejoin="round" stroke-width="2" d="M0 0H86.245V5.011H0z" transform="matrix(-.24664 .9691 -.97445 -.22462 439.782 225.94)"/>
    <path fill="#FFC392" stroke="#0A1F44" stroke-linecap="round" stroke-linejoin="round" stroke-width="2" d="M189.123 248.704l1.827.29c6.623 1.087 12.865-3.188 13.931-9.419l2.817-15.866c1.142-6.303-3.35-12.244-9.897-13.258l-1.827-.29c-6.623-1.087-12.865 3.188-13.931 9.418l-2.816 15.867c-1.142 6.303 3.273 12.244 9.896 13.258z"/>
    <path fill="#0A1F44" stroke="#0A1F44" stroke-linecap="round" stroke-linejoin="round" stroke-width="2" d="M220.944 208.277c-1.218-7.824-8.907-13.185-17.053-11.954-4.643.652-8.45 3.26-10.657 6.81-4.035-2.608-9.592-3.839-15.454-2.97-10.657 1.521-18.194 9.273-16.976 17.243.076.29.076.507.152.797l-.456.072c-.686 0-1.447.073-2.208.218-12.028 1.738-20.25 12.388-18.423 23.835 1.827 11.447 13.018 19.272 25.046 17.533 12.028-1.739 20.249-12.389 18.422-23.836-.228-1.449-.609-2.825-1.141-4.129l-.457-2.681c.152 0 .38-.072.533-.072 6.166-.87 11.266-3.84 14.235-7.68 3.198 2.463 7.384 3.767 11.724 3.115 8.297-1.231 13.931-8.476 12.713-16.301z"/>
    <path fill="#FFC392" d="M185.241 236.243c-2.208 1.956-5.786 1.666-7.994-.652-2.207-2.319-2.131-5.724.153-7.608 2.207-1.956 5.785-1.666 7.993.653"/>
    <path stroke="#0A1F44" stroke-linecap="round" stroke-linejoin="round" stroke-width="2" d="M185.241 236.243c-2.208 1.956-5.786 1.666-7.994-.652-2.207-2.319-2.131-5.724.153-7.608 2.207-1.956 5.785-1.666 7.993.653"/>
    <path fill="#0A1F44" stroke="#0A1F44" stroke-linecap="round" stroke-linejoin="round" stroke-width="2" d="M149.385 245.661H163.012v0h6.927c1.218-2.753 1.827-5.723 1.827-8.839 0-12.678-10.81-23.039-24.208-23.039-13.322 0-24.208 10.288-24.208 23.039 0 5.651 2.132 10.795 5.633 14.78 5.938-3.767 12.942-5.941 20.402-5.941z"/>
    <path fill="#0A1F44" d="M199.933 231.244c-.152 1.376.457 2.68 1.522 3.55.686.507 1.599-.363.914-.87-.837-.652-1.294-1.594-1.142-2.68.076-.797-1.218-.797-1.294 0zM198.791 239.575c-2.131-.362-3.806-1.521-4.796-3.405-.228-.434-.913-.362-1.142 0-1.979 2.826-.457 6.883 2.893 7.897.837.29 1.142-.942.381-1.231-2.589-.797-3.578-3.913-2.056-6.014h-1.142c1.066 2.101 3.122 3.55 5.558 3.985.761.145 1.141-1.087.304-1.232zM162.479 256.021c2.74 5.217 3.349 10.795 1.675 16.446-.229.797 1.065 1.087 1.294.363 1.751-5.941 1.066-11.955-1.827-17.388-.381-.797-1.523-.145-1.142.579zM212.037 292.681c-7.841-1.956-15.91-1.522-23.523 1.304-.761.29-.457 1.521.381 1.231 7.308-2.753 15.149-3.26 22.761-1.304.838.145 1.142-1.014.381-1.231zM143.067 311.155c-3.198 1.087-5.862 3.043-7.765 5.724-.457.652.685 1.304 1.142.652 1.675-2.391 4.111-4.202 7.003-5.144.838-.29.457-1.522-.38-1.232zM143.904 314.415c-1.37 2.536-2.664 4.999-4.035 7.535-.38.725.762 1.377 1.142.652 1.371-2.536 2.665-4.999 4.035-7.535.381-.796-.761-1.449-1.142-.652zM186.915 363.536c8.298 6.231 18.423 8.766 28.776 9.781 12.713 1.231 25.655.797 38.444.869l21.696.217c6.394.073 14.387-1.014 20.325 1.594 11.115 4.854 8.907 21.445 9.059 30.864.229 15.286.533 30.573.762 45.932 0 .797 1.37.797 1.37 0-.229-14.055-.457-28.11-.761-42.165-.077-6.086.076-12.316-.457-18.402-.381-4.275-1.142-8.766-3.654-12.461-2.589-3.768-6.547-5.651-11.191-6.231-6.623-.797-13.474-.362-20.173-.362-14.464-.145-28.852-.073-43.316-.435-13.931-.29-28.699-1.594-40.042-10.07-.533-.58-1.447.362-.838.869z"/>
    <path fill="#0A1F44" d="M288.087 450.258c8.374 1.739 16.671 3.477 25.045 5.216.838.145 1.218-1.014.381-1.231-8.374-1.739-16.672-3.478-25.046-5.217-.837-.145-1.218 1.087-.38 1.232zM345.41 426.784c24.893 11.013 50.243 21.083 75.974 30.212.837.289 1.141-.942.38-1.232-25.578-9.129-50.852-19.199-75.593-30.139-.837-.29-1.523.797-.761 1.159zM429.072 444.39l-17.585 39.339c-.304.725.838 1.377 1.142.653l17.585-39.34c.305-.725-.837-1.377-1.142-.652zM292.274 461.995c-.99 2.246-2.741 4.129-4.948 5.288-.762.363-.076 1.522.685 1.087 2.588-1.376 4.491-3.477 5.557-6.013.304-.725-.99-1.087-1.294-.362zM288.924 484.816h64.631c.838 0 .838-1.304 0-1.304h-64.631c-.837 0-.837 1.304 0 1.304z"/>
    <path fill="#0A1F44" d="M358.427 472.427c-3.578 3.188-5.405 7.68-4.796 12.317.077.797 1.447.797 1.371 0-.533-4.347 1.065-8.404 4.415-11.447.533-.507-.381-1.377-.99-.87zM432.422 488.366c15.454-16.373 30.146-33.471 44.077-51.077.533-.652-.609-1.304-1.142-.652-13.855 17.533-28.471 34.486-43.849 50.86-.532.579.381 1.449.914.869zM475.281 435.478c-2.588-2.68-3.806-6.013-3.654-9.636.076-.796-1.294-.796-1.37 0-.229 3.985 1.218 7.608 4.034 10.578.609.58 1.523-.362.99-.942zM469.115 430.914c-5.938 5.071-13.17 12.606-8.07 20.503.457.725 1.599.072 1.142-.652-4.796-7.39 2.436-14.345 7.841-18.982.685-.507-.304-1.376-.913-.869z"/>
    <path fill="#0A1F44" d="M456.478 437.434c.685 1.232 1.294 2.536 1.979 3.768.381.724 1.523.072 1.142-.652-.685-1.232-1.294-2.536-1.979-3.768-.381-.724-1.523-.072-1.142.652zM456.097 444.679c-6.242 2.898-12.104 6.303-17.737 10.071-.685.434 0 1.594.685 1.086 5.633-3.839 11.571-7.172 17.737-10.07.762-.362.076-1.449-.685-1.087z"/>
    <path fill="#0A1F44" d="M442.394 446.128c.762 2.029 1.675 3.912 2.893 5.724.381.579 1.218.29 1.218-.29.305-3.55.685-7.028.99-10.578l-1.142.435c2.055 2.029 4.111 4.13 6.166 6.158.305.362.99.218 1.142-.29.838-3.405 1.066-6.737.685-10.215-.076-.797-1.446-.797-1.37 0 .381 3.333.152 6.593-.609 9.853.381-.072.761-.217 1.142-.29-2.056-2.028-4.111-4.129-6.166-6.158-.457-.435-1.066-.072-1.142.435-.305 3.55-.685 7.027-.99 10.577.381-.072.838-.217 1.218-.289-1.142-1.739-2.055-3.478-2.74-5.434-.305-.725-1.599-.435-1.295.362zM427.93 480.252c2.741-2.174 6.852-2.246 9.668-.145.686.507 1.599-.362.914-.869-3.426-2.609-8.146-2.536-11.495.145-.685.507.228 1.376.913.869zM287.63 475.398c5.253.579 9.44 4.564 10.201 9.563.152.797 1.447.435 1.294-.362-.837-5.579-5.633-9.853-11.495-10.505-.837-.073-.837 1.159 0 1.304zM355.078 475.036c-7.689-2.391-20.326-.58-23.447 7.679-.304.797.99 1.087 1.294.362 2.893-7.607 14.845-8.983 21.772-6.81.838.218 1.142-1.014.381-1.231zM316.33 466.486c5.938 2.464 11.875 4.999 17.813 7.463.761.362 1.447-.797.685-1.087-5.938-2.463-11.875-4.999-17.813-7.462-.838-.29-1.523.797-.685 1.086zM343.963 468.515c-1.522 1.014-2.74 2.391-3.501 3.985-.381.724.761 1.376 1.142.652.685-1.449 1.674-2.681 3.045-3.55.685-.435 0-1.522-.686-1.087z"/>
    <path fill="#0A1F44" d="M330.032 465.11c-1.065 1.956-2.131 3.84-3.197 5.796-.304.58.305 1.087.914.869 4.034-1.666 8.069-3.405 12.028-5.071.761-.362.076-1.449-.686-1.087-4.034 1.666-8.069 3.405-12.027 5.072l.913.869c1.066-1.956 2.132-3.84 3.197-5.796.457-.724-.685-1.377-1.142-.652zM302.779 358.682c1.294 10.578 9.82 19.416 20.859 21.372.837.145 1.218-1.086.38-1.231-10.429-1.884-18.651-10.143-19.869-20.141-.076-.797-1.446-.797-1.37 0zM166.818 386.43c4.339-3.043 8.678-6.013 12.942-9.056.685-.507 0-1.594-.686-1.087-4.339 3.043-8.678 6.013-12.941 9.056-.685.435 0 1.522.685 1.087zM201.988 363.391c1.447 1.956 2.056 4.202 1.904 6.593-.077.797 1.294.797 1.37 0 .228-2.608-.533-5.071-2.056-7.245-.533-.652-1.751-.072-1.218.652zM181.358 320.356c.305 6.448.609 12.969.914 19.417 0 .797 1.37.797 1.37 0-.305-6.448-.609-12.969-.914-19.417-.076-.797-1.446-.797-1.37 0zM305.444 283.987c-.077 8.114-.762 16.228-2.132 24.27-.152.797 1.142 1.159 1.294.362 1.37-8.186 2.056-16.373 2.132-24.632.076-.797-1.294-.797-1.294 0z"/>
    <path fill="#0A1F44" d="M276.059 304.055h27.253c.838 0 .838-1.304 0-1.304h-27.253c-.837.073-.837 1.304 0 1.304zM107.82 317.676c9.973 3.55 20.326 11.881 19.945 22.821 0 .797 1.295.797 1.371 0 .38-11.592-10.43-20.358-20.935-24.053-.837-.29-1.218.942-.381 1.232zM286.793 397.66c.304-2.971.761-5.869 1.37-8.767.152-.797-1.142-1.159-1.294-.362-.609 3.043-1.066 6.086-1.37 9.129-.153.797 1.218.797 1.294 0zM288.62 398.746c1.751-.869 3.502-1.811 5.253-2.68.761-.362.076-1.449-.686-1.087-1.75.869-3.501 1.811-5.252 2.681-.762.362-.076 1.449.685 1.086z"/>
    <path fill="#FF4F00" stroke="#0A1F44" stroke-linecap="round" stroke-linejoin="round" stroke-width="2" d="M545.241 329.412l67.752 160.403h-13.551l-82.749-160.403h28.548zM367.639 329.412l-67.676 160.403h13.55l82.749-160.403h-28.623z"/>
    <path fill="#0A1F44" stroke="#0A1F44" stroke-linecap="round" stroke-linejoin="round" stroke-width="2" d="M556.051 355.06h-26.112l-13.246-25.648h28.548l10.81 25.648zM396.262 329.412l-13.246 25.648h-26.187l10.81-25.648h28.623z"/>
    <path fill="#FF4F00" stroke="#0A1F44" stroke-linecap="round" stroke-linejoin="round" stroke-width="2" d="M294.253 309.561H679.0699999999999V322.457H294.253z"/>
    <path fill="#FF4F00" stroke="#0A1F44" stroke-linecap="round" stroke-linejoin="round" stroke-width="2" d="M294.253 309.561H582.6949999999999V322.457H294.253z"/>
    <path fill="#FF4F00" stroke="#0A1F44" stroke-linecap="round" stroke-linejoin="round" stroke-width="2" d="M309.783 322.385H663.617V345.714H309.783z"/>
    <path fill="#FF4F00" stroke="#0A1F44" stroke-linecap="round" stroke-linejoin="round" stroke-width="2" d="M309.783 322.385H600.813V345.714H309.783z"/>
    <path fill="#0A1F44" stroke="#0A1F44" stroke-linecap="round" stroke-linejoin="round" stroke-width="2" d="M309.783 322.385H663.617V330.354H309.783z"/>
    <path fill="#FFE394" stroke="#0A1F44" stroke-linecap="round" stroke-linejoin="round" stroke-width="2" d="M328.358 422.51l-28.395 67.305h13.55l34.714-67.305h-19.869zM584.522 422.51h-19.793l34.714 67.305h13.55l-28.471-67.305z"/>
    <path fill="#0A1F44" d="M540.14 349.771c22.001 46.802 43.925 93.604 65.926 140.334.38.724 1.522.072 1.141-.652-22-46.802-43.924-93.605-65.925-140.334-.304-.797-1.446-.145-1.142.652zM373.348 349.119c-22 46.802-43.925 93.604-65.925 140.334-.381.724.837 1.376 1.142.652 22-46.802 43.925-93.605 65.925-140.334.381-.797-.761-1.449-1.142-.652z"/>
    <path fill="#FF4F00" stroke="#0A1F44" stroke-linecap="round" stroke-linejoin="round" stroke-width="2" d="M90.083 455.402H250.176V467.284H90.083z"/>
    <path fill="#FF4F00" stroke="#0A1F44" stroke-linecap="round" stroke-linejoin="round" stroke-width="2" d="M241.802 422.51h-19.869l32.963 63.9c1.066 2.101 3.349 3.405 5.786 3.405v0c4.567 0 7.688-4.419 6.013-8.404l-24.893-58.901zM133.17 345.134L75.695 481.339c-1.675 4.057 1.447 8.404 6.014 8.404v0c2.436 0 4.72-1.304 5.786-3.405l72.776-141.204H133.17z"/>
    <path fill="#0A1F44" stroke="#0A1F44" stroke-linecap="round" stroke-linejoin="round" stroke-width="2" d="M149.766 365.492l10.505-20.358H133.17l-8.602 20.358h25.198z"/>
    <path fill="#FF4F00" stroke="#0A1F44" stroke-linecap="round" stroke-linejoin="round" stroke-width="2" d="M223.532 345.134h-99.116c-1.294 0-2.284 1.014-2.284 2.174v8.549c0 1.231 1.066 2.173 2.284 2.173h108.023c1.294 0 2.284-1.014 2.284-2.173v0c0-5.941-5.025-10.723-11.191-10.723z"/>
    <path fill="#FF4F00" stroke="#0A1F44" stroke-linecap="round" stroke-linejoin="round" stroke-width="2" d="M209.753 345.134h-85.337c-1.294 0-2.284 1.014-2.284 2.174v8.549c0 1.231 1.066 2.173 2.284 2.173h94.244c1.294 0 2.284-1.014 2.284-2.173v0c0-5.941-5.025-10.723-11.191-10.723z"/>
    <path fill="#0A1F44" d="M144.132 360.783c.381-.724.762-1.521 1.066-2.246l-1.142-.652c-12.256 25.502-24.588 51.077-36.845 76.579l1.142.652c1.142-2.391 2.284-4.709 3.426-7.1.381-.724-.761-1.377-1.142-.652-6.318 13.041-12.56 26.154-18.88 39.195-.38.725.762 1.377 1.143.652 6.318-13.041 12.56-26.154 18.879-39.195l-1.142-.652c-1.142 2.391-2.284 4.709-3.426 7.1-.38.724.762 1.377 1.142.652 12.257-25.502 24.589-51.077 36.845-76.579.381-.724-.761-1.376-1.142-.652-.38.725-.761 1.522-1.065 2.246-.381.725.761 1.377 1.141.652zM232.058 423.524c-.152-.29-.304-.579-.381-.942l-1.141.652c4.643 10.361 9.287 20.648 13.931 31.009l1.142-.652c-.457-.942-.838-1.884-1.295-2.898-.304-.725-1.522-.073-1.141.652 2.359 5.288 4.795 10.577 7.155 15.866.305.725 1.523.072 1.142-.652-2.36-5.289-4.796-10.578-7.156-15.866l-1.141.652c.456.941.837 1.883 1.294 2.898.304.724 1.522.072 1.142-.652-4.644-10.361-9.288-20.648-13.932-31.009-.304-.724-1.522-.072-1.141.652.152.29.304.58.38.942.381.725 1.523.073 1.142-.652z"/>
    <path fill="#0A1F44" stroke="#0A1F44" stroke-linecap="round" stroke-linejoin="round" stroke-width="2" d="M244.695 429.465l-2.893-6.955h-19.869l3.578 6.955h19.184z"/>
    <path fill="#0FB763" stroke="#0A1F44" stroke-linecap="round" stroke-linejoin="round" stroke-width="2" d="M488.831 284.856s-2.969-13.765-3.501-19.996c-.533-6.303-.533-9.781 2.436-9.781 2.968 0 2.968 6.521 3.501 13.476.533 6.955 1.599 15.359 1.599 15.359l-4.035.942zM514.562 292.536s3.197-13.766 3.73-19.996c.533-6.231.609-9.781-2.588-9.781-3.198 0-3.198 6.521-3.73 13.476-.609 6.955-1.751 15.359-1.751 15.359l4.339.942z"/>
    <path fill="#0FB763" stroke="#0A1F44" stroke-linecap="round" stroke-linejoin="round" stroke-width="2" d="M512.354 253.196c-2.436.435-.533 2.536-2.131 4.419-.838.942-2.436 2.246-3.807 2.174-.076-5.724-.685-11.085-2.969-11.085-4.567 0-4.567 4.202-4.567 11.882 0 7.679 1.599 24.198 1.903 24.922.305.725 5.709.218 5.709.218s.305-8.115 0-14.2c-.076-1.812 0-2.754 0-5.796 1.904-.145 3.655-1.377 6.471-3.043 4.796-2.753 1.827-9.998-.609-9.491z"/>
    <path fill="#0FB763" stroke="#0A1F44" stroke-linecap="round" stroke-linejoin="round" stroke-width="2" d="M495.454 261.89c-3.806.217-1.751 11.302-1.674 15.359 0 4.057.685 9.491.685 9.491s5.1.072 5.328-.435c.229-.507.914-11.592.609-16.736-.304-5.144-.609-7.897-4.948-7.679z"/>
    <path fill="#FF8249" stroke="#0A1F44" stroke-linecap="round" stroke-linejoin="round" stroke-width="2" d="M516.161 309.56h-43.012c-1.294 0-2.283-1.231-1.827-2.463l9.212-24.778c.304-.724.989-1.231 1.827-1.231H522.86c.837 0 1.522.507 1.827 1.231l9.211 24.778c.457 1.159-.457 2.463-1.827 2.463h-15.91z"/>
    <path fill="#fff" d="M480.914 280.871l21.696 27.966 21.315-27.458"/>
    <path stroke="#0A1F44" stroke-linecap="round" stroke-linejoin="round" stroke-width="2" d="M480.914 280.871l21.696 27.966 21.315-27.458"/>
    <path stroke="#fff" stroke-linecap="round" stroke-linejoin="round" stroke-width="2" d="M486.776 263.918l.99 1.16M487.766 258.774l.685 1.377M488.755 268.555l-.304 1.377M488.984 274.351l.989.942M496.52 266.889l-.228 1.159M498.499 270.873l-1.675 2.319M496.52 277.176l1.751.653M502.153 262.252l.762 1.884M503.143 256.456l.99 1.377M502.915 250.588l-1.98 3.043M509.538 261.817l.456.942M512.43 258.992l1.751.507M504.361 271.598l-.99 1.594M503.143 276.959l2.208 1.594M515.628 273.192l-1.98 1.666M515.399 267.613l1.218 1.159M514.943 277.394l1.446 1.159"/>
    <path fill="#FF4F00" stroke="#FF4F00" stroke-linecap="round" stroke-linejoin="round" stroke-width="2" d="M389.944 79.39c-.686 14.418-13.018 26.154-28.167 26.734-5.862.217-11.343-1.159-15.987-3.767-1.218-.652-2.359-1.377-3.425-2.246-6.319-4.782-10.506-11.882-11.115-19.996h30.451v0l.989-1.377 1.827-2.608 14.312-19.996v0c7.156 5.434 11.571 13.838 11.115 23.256z"/>
    <path fill="#FF4F00" stroke="#FF4F00" stroke-linecap="round" stroke-linejoin="round" stroke-width="2" d="M358.58 50.266v25.936h-27.253c.989-13.91 12.636-24.995 27.253-25.936v0zM375.403 53.96L362.69 71.71v0-21.517 0c4.568.362 8.907 1.666 12.713 3.768v0z"/>
    <path fill="#FFF2D2" stroke="#FF4F00" stroke-linecap="round" stroke-linejoin="round" stroke-width="2" d="M392.989 75.26c-.686 14.418-13.018 26.155-28.167 26.734-5.862.218-11.343-1.159-15.987-3.767-1.218-.652-2.359-1.377-3.425-2.246-6.319-4.782-10.506-11.882-11.115-19.996h30.451v0l.989-1.377L367.562 72l14.312-19.996v0c7.08 5.434 11.571 13.91 11.115 23.256z"/>
    <path fill="#FFF2D2" stroke="#FF4F00" stroke-linecap="round" stroke-linejoin="round" stroke-width="2" d="M361.625 46.136v25.937h-27.254c.99-13.838 12.637-24.995 27.254-25.937v0z"/>
    <path fill="#fff" stroke="#FF4F00" stroke-linecap="round" stroke-linejoin="round" stroke-width="2" d="M378.448 49.83l-12.713 17.75v0-21.517 0c4.568.363 8.907 1.667 12.713 3.768v0z"/>
    <path fill="#FF4F00" stroke="#FF4F00" stroke-width="2" d="M570.667 57.293V10.636c0-2.608-2.056-4.71-4.644-4.71H533.67c-2.589 0-4.644 2.102-4.644 4.71v46.657c0 2.608 2.055 4.71 4.644 4.71h32.353c2.588.072 4.644-2.102 4.644-4.71z"/>
    <path fill="#FFF2D2" stroke="#FF4F00" stroke-linecap="round" stroke-linejoin="round" stroke-width="2" d="M574.321 54.395V7.738c0-2.608-2.056-4.71-4.644-4.71h-32.353c-2.589 0-4.644 2.102-4.644 4.71v46.657c0 2.608 2.055 4.71 4.644 4.71h32.353c2.588 0 4.644-2.102 4.644-4.71z"/>
    <path fill="#FF4F00" stroke="#FF4F00" stroke-width="2" d="M540.14 11.94H566.86V18.533H540.14z"/>
    <path fill="#FFCA76" d="M544.556 36.283h-3.731c-.456 0-.837-.363-.837-.797v-3.188c0-.435.381-.797.837-.797h3.731c.456 0 .837.362.837.797v3.188c0 .434-.381.797-.837.797zM552.092 36.283h-3.73c-.457 0-.838-.363-.838-.797v-3.188c0-.435.381-.797.838-.797h3.73c.457 0 .837.362.837.797v3.188c0 .434-.38.797-.837.797zM559.324 36.283h-3.73c-.457 0-.838-.363-.838-.797v-3.188c0-.435.381-.797.838-.797h3.73c.457 0 .837.362.837.797v3.188c-.076.434-.456.797-.837.797zM566.251 36.283h-3.73c-.457 0-.837-.363-.837-.797v-3.188c0-.435.38-.797.837-.797h3.73c.457 0 .838.362.838.797v3.188c0 .434-.381.797-.838.797zM544.556 42.803h-3.731c-.456 0-.837-.362-.837-.797v-3.188c0-.434.381-.796.837-.796h3.731c.456 0 .837.362.837.796v3.188c0 .435-.381.797-.837.797zM552.092 42.803h-3.73c-.457 0-.838-.362-.838-.797v-3.188c0-.434.381-.796.838-.796h3.73c.457 0 .837.362.837.796v3.188c0 .435-.38.797-.837.797zM559.324 42.803h-3.73c-.457 0-.838-.362-.838-.797v-3.188c0-.434.381-.796.838-.796h3.73c.457 0 .837.362.837.796v3.188c-.076.435-.456.797-.837.797zM566.251 49.179h-3.73c-.457 0-.837-.363-.837-.797v-9.564c0-.434.38-.796.837-.796h3.73c.457 0 .838.362.838.796v9.564c0 .434-.381.797-.838.797zM544.556 49.324h-3.731c-.456 0-.837-.363-.837-.797v-3.188c0-.435.381-.797.837-.797h3.731c.456 0 .837.362.837.797v3.188c0 .434-.381.797-.837.797zM552.092 49.324h-3.73c-.457 0-.838-.363-.838-.797v-3.188c0-.435.381-.797.838-.797h3.73c.457 0 .837.362.837.797v3.188c0 .434-.38.797-.837.797zM559.324 49.324h-3.73c-.457 0-.838-.363-.838-.797v-3.188c0-.435.381-.797.838-.797h3.73c.457 0 .837.362.837.797v3.188c-.076.434-.456.797-.837.797zM542.729 26.937c0 .724-.609 1.304-1.371 1.304-.761 0-1.37-.58-1.37-1.304 0-.725.609-1.304 1.37-1.304.762.072 1.371.652 1.371 1.304zM546.915 26.937c0 .724-.609 1.304-1.37 1.304-.761 0-1.37-.58-1.37-1.304 0-.725.609-1.304 1.37-1.304.761.072 1.37.652 1.37 1.304zM551.483 26.937c0 .724-.609 1.304-1.37 1.304-.761 0-1.371-.58-1.371-1.304 0-.725.61-1.304 1.371-1.304s1.37.652 1.37 1.304z"/>
    <path fill="#FF4F00" stroke="#FF4F00" stroke-linecap="round" stroke-linejoin="round" stroke-width="2" d="M700.766 130.684l-43.163.362c-3.73 0-6.775 2.971-6.699 6.521l.152 18.909c0 3.55 3.121 6.448 6.851 6.376l13.931-.145 7.918 9.636 7.46-9.781 13.855-.145c3.73 0 6.775-2.97 6.699-6.52l-.152-18.837c-.076-3.55-3.121-6.448-6.852-6.376z"/>
    <path fill="#FFF2D2" stroke="#FF4F00" stroke-linecap="round" stroke-linejoin="round" stroke-width="2" d="M704.573 129.09l-43.164.363c-3.73 0-6.775 2.97-6.699 6.52l.152 18.909c0 3.55 3.121 6.448 6.852 6.376l13.931-.145 7.917 9.636 7.46-9.781 13.855-.145c3.73 0 6.775-2.97 6.699-6.52l-.152-18.91c-.076-3.477-3.121-6.375-6.851-6.303z"/>
    <path fill="#fff" stroke="#FF4F00" stroke-linecap="round" stroke-linejoin="round" stroke-width="2" d="M687.597 144.812c0 2.391-2.056 4.419-4.568 4.419-2.512 0-4.644-1.956-4.644-4.347 0-2.391 2.056-4.419 4.568-4.419 2.512 0 4.644 1.956 4.644 4.347zM674.046 144.957c0 2.391-2.055 4.419-4.568 4.419-2.512 0-4.643-1.956-4.643-4.347 0-2.391 2.055-4.419 4.567-4.419 2.589-.073 4.644 1.883 4.644 4.347zM700.919 144.667c0 2.391-2.056 4.419-4.568 4.419-2.512 0-4.644-1.956-4.644-4.347 0-2.39 2.056-4.419 4.568-4.419 2.512 0 4.567 1.956 4.644 4.347z"/>
    <path fill="#FF4F00" stroke="#FF4F00" stroke-linecap="round" stroke-linejoin="round" stroke-width="2" d="M524.991 204.727c0 .652 0 1.377-.152 2.101-1.37 6.811-6.394 10.143-12.104 11.23v4.419h-7.384v-4.274c-6.09-1.159-11.419-5.796-12.256-11.52h7.993c.913 2.536 4.339 4.42 7.308 4.42 2.969 0 6.623-.435 8.069-3.478.305-.579.914-2.463.685-3.115-1.903-6.883-14.159-.58-20.325-8.187-1.599-1.956-2.208-4.419-2.208-7.027 0-.29 0-.652.076-.942.457-5.796 4.796-10.505 10.582-11.737v-4.709h7.384v4.926c5.329 1.377 9.44 5.217 9.82 10.578h-7.612c-.457-2.753-3.502-3.912-6.471-3.912-3.045 0-5.557 2.101-6.014 4.854-.076.29-.152.652-.076.942.913 7.245 10.886 1.738 18.194 6.882 2.512 1.594 4.491 5.362 4.491 8.549z"/>
    <path fill="#FFF2D2" stroke="#FF4F00" stroke-linecap="round" stroke-linejoin="round" stroke-width="2" d="M521.642 203.713c0 .652 0 1.377-.152 2.101-1.371 6.81-6.395 10.143-12.104 11.23v4.419h-7.385v-4.274c-6.09-1.16-11.419-5.796-12.256-11.52h7.993c.914 2.536 4.339 4.42 7.308 4.42 2.969 0 6.623-.435 8.07-3.478.304-.58.913-2.463.685-3.115-1.903-6.883-14.16-.58-20.326-8.187-1.598-1.956-2.207-4.419-2.207-7.028 0-.289 0-.652.076-.941.456-5.796 4.796-10.506 10.581-11.737v-4.709h7.384v4.926c5.329 1.377 9.44 5.216 9.821 10.578h-7.613c-.457-2.753-3.502-3.913-6.471-3.913-2.969 0-5.557 2.101-6.014 4.855-.076.289-.152.652-.076.941.914 7.245 10.886 1.739 18.194 6.883 2.513 1.594 4.492 5.361 4.492 8.549z"/>
    <path fill="#FF4F00" stroke="#FF4F00" stroke-linecap="round" stroke-linejoin="round" stroke-width="2" d="M357.286 225.158l-14.16-.435v-4.419c0-4.202-.609-12.534-7.765-11.737-1.37.145 0 4.419-.457 6.158L333.839 219c-.609 3.912-4.035 8.621-8.146 8.621h-1.37c-.685-1.159-1.979-1.956-3.426-1.956h-9.363c-2.132 0-3.883 1.666-3.883 3.695v22.749c0 2.029 1.751 3.695 3.883 3.695h9.363c2.056 0 3.73-1.522 3.883-3.478 1.903 1.449 4.339 2.319 7.003 2.319l17.585.434c3.122 0 5.786-2.245 6.014-5.216l1.675-14.417h.229c1.827 0 3.349-3.261 3.349-4.999v-2.029c-.076-1.884-1.522-3.26-3.349-3.26z"/>
    <path fill="#FFF2D2" stroke="#FF4F00" stroke-linecap="round" stroke-linejoin="round" stroke-width="2" d="M361.244 221.318l-14.159-.435v-4.419c0-4.202-.609-12.534-7.765-11.737-1.37.145 0 4.42-.457 6.158l-1.066 4.275c-.609 3.912-4.034 8.621-8.145 8.621h-5.253v16.229c0 5.941 5.101 10.795 11.343 10.795l17.585.435c3.121 0 5.786-2.246 6.014-5.217l1.675-14.417h.228c1.827 0 3.35-3.26 3.35-4.999v-2.029c0-1.811-1.447-3.26-3.35-3.26z"/>
    <path fill="#fff" stroke="#FF4F00" stroke-linecap="round" stroke-linejoin="round" stroke-width="2" d="M324.323 251.964h-8.298c-2.436 0-4.415-1.883-4.415-4.202v-21.735c0-2.318 1.979-4.202 4.415-4.202h8.298c2.436 0 4.415 1.884 4.415 4.202v21.735c0 2.319-1.979 4.202-4.415 4.202zM578.127 22.662h-.913c-.305 0-.609-.29-.609-.58v-.869c0-1.159-.914-2.1-2.132-2.173-1.294-.072-2.436.942-2.436 2.173v.87c0 .29-.304.58-.609.58h-.913c-1.218 0-2.208.869-2.284 2.028-.076 1.232.989 2.318 2.284 2.318h.913c.305 0 .609.29.609.58v.87c0 1.159.914 2.1 2.132 2.173 1.294.072 2.436-.942 2.436-2.174v-.87c0-.289.304-.579.609-.579h.913c1.294 0 2.36-1.014 2.284-2.318-.076-1.16-1.066-2.029-2.284-2.029zM525.829 198.279h-.914c-.304 0-.609-.289-.609-.579v-.87c0-1.159-.913-2.101-2.131-2.173-1.295-.073-2.436.942-2.436 2.173v.87c0 .29-.305.579-.609.579h-.914c-1.218 0-2.208.87-2.284 2.029-.076 1.232.99 2.318 2.284 2.318h.914c.304 0 .609.29.609.58v.869c0 1.159.913 2.101 2.131 2.174 1.294.072 2.436-.942 2.436-2.174v-.869c0-.29.305-.58.609-.58h.914c1.294 0 2.36-1.014 2.283-2.318-.076-1.159-1.065-2.029-2.283-2.029z"/>
    <path fill="#fff" stroke="#FF4F00" stroke-linecap="round" stroke-linejoin="round" stroke-width="2" d="M316.939 222.115h-.914c-.304 0-.609-.29-.609-.579v-.87c0-1.159-.913-2.101-2.131-2.173-1.295-.073-2.436.942-2.436 2.173v.87c0 .289-.305.579-.609.579h-.914c-1.218 0-2.208.87-2.284 2.029-.076 1.231.99 2.318 2.284 2.318h.914c.304 0 .609.29.609.58v.869c0 1.159.913 2.101 2.131 2.174 1.294.072 2.436-.942 2.436-2.174v-.869c0-.29.305-.58.609-.58h.914c1.294 0 2.36-1.014 2.283-2.318-.076-1.159-1.141-2.029-2.283-2.029zM658.44 131.046h-.913c-.305 0-.609-.289-.609-.579v-.87c0-1.159-.914-2.101-2.132-2.173-1.294-.073-2.436.942-2.436 2.173v.87c0 .29-.304.579-.609.579h-.913c-1.218 0-2.208.87-2.284 2.029-.076 1.232.989 2.318 2.284 2.318h.913c.305 0 .609.29.609.58v.869c0 1.16.914 2.101 2.132 2.174 1.294.072 2.436-.942 2.436-2.174v-.869c0-.29.304-.58.609-.58h.913c1.294 0 2.36-1.014 2.284-2.318-.076-1.159-1.066-2.029-2.284-2.029zM265.097 138.147h-.609c-.229 0-.381-.145-.381-.363v-.579c0-.797-.609-1.449-1.446-1.522-.914-.072-1.675.652-1.675 1.449v.652c0 .218-.152.363-.381.363h-.609c-.837 0-1.522.579-1.598 1.376-.076.869.685 1.594 1.522 1.594h.685c.229 0 .381.145.381.362v.58c0 .797.609 1.449 1.446 1.521.914.073 1.675-.652 1.675-1.449v-.652c0-.217.152-.362.381-.362h.685c.914 0 1.599-.725 1.523-1.594-.077-.797-.762-1.376-1.599-1.376zM645.042 53.308h-.609c-.228 0-.381-.145-.381-.362v-.58c0-.796-.609-1.449-1.446-1.52-.913-.073-1.675.651-1.675 1.448v.652c0 .218-.152.362-.38.362h-.609c-.838 0-1.523.58-1.599 1.377-.076.87.685 1.594 1.522 1.594h.686c.228 0 .38.145.38.362v.58c0 .797.609 1.449 1.447 1.521.913.073 1.674-.652 1.674-1.449v-.652c0-.217.153-.362.381-.362h.685c.914 0 1.599-.725 1.523-1.594-.076-.725-.838-1.377-1.599-1.377zM471.399 168.575h-.609c-.229 0-.381-.145-.381-.362v-.58c0-.797-.609-1.449-1.446-1.521-.914-.073-1.675.652-1.675 1.449v.652c0 .217-.153.362-.381.362h-.609c-.837 0-1.522.58-1.599 1.377-.076.869.686 1.594 1.523 1.594h.685c.228 0 .381.144.381.362v.579c0 .797.609 1.449 1.446 1.522.914.072 1.675-.652 1.675-1.449v-.652c0-.218.152-.362.381-.362h.685c.913 0 1.598-.725 1.522-1.594-.076-.797-.837-1.377-1.598-1.377zM469.876 51.207h-.609c-.228 0-.381-.145-.381-.362v-.58c0-.797-.609-1.449-1.446-1.521-.914-.072-1.675.652-1.675 1.449v.652c0 .217-.152.362-.38.362h-.609c-.838 0-1.523.58-1.599 1.377-.076.87.685 1.594 1.522 1.594h.686c.228 0 .38.145.38.362v.58c0 .797.609 1.449 1.447 1.521.913.072 1.674-.652 1.674-1.449v-.652c0-.217.153-.362.381-.362h.685c.914 0 1.599-.725 1.523-1.594-.076-.725-.762-1.377-1.599-1.377zM697.721 184.152h-.609c-.228 0-.38-.145-.38-.362v-.58c0-.797-.609-1.449-1.447-1.522-.913-.072-1.674.653-1.674 1.449v.653c0 .217-.153.362-.381.362h-.609c-.838 0-1.523.579-1.599 1.376-.076.87.685 1.594 1.523 1.594h.685c.228 0 .381.145.381.362v.58c0 .797.609 1.449 1.446 1.521.913.073 1.675-.652 1.675-1.449v-.652c0-.217.152-.362.38-.362h.685c.914 0 1.599-.724 1.523-1.594-.076-.797-.761-1.376-1.599-1.376zM394.283 65.48h-.914c-.304 0-.609-.29-.609-.58v-.87c0-1.158-.913-2.1-2.131-2.173-1.294-.072-2.436.942-2.436 2.174v.87c0 .29-.305.579-.609.579h-.914c-1.218 0-2.207.87-2.284 2.028-.076 1.232.99 2.319 2.284 2.319h.914c.304 0 .609.29.609.58v.869c0 1.159.913 2.1 2.131 2.173 1.294.073 2.436-.942 2.436-2.173v-.87c0-.29.305-.58.609-.58h.914c1.294 0 2.36-1.013 2.284-2.317-.076-1.16-1.066-2.03-2.284-2.03zM402.885 205.742c0 1.304-1.142 2.39-2.512 2.39s-2.512-1.086-2.512-2.39 1.142-2.391 2.512-2.391 2.512 1.087 2.512 2.391zM417.806 88.591c0 1.304-1.142 2.391-2.512 2.391-1.371 0-2.513-1.087-2.513-2.39 0-1.305 1.142-2.392 2.513-2.392 1.37 0 2.512 1.087 2.512 2.391zM593.505 217.116c0 1.304-1.142 2.391-2.512 2.391-1.371 0-2.513-1.087-2.513-2.391s1.142-2.391 2.513-2.391c1.37 0 2.512 1.087 2.512 2.391zM307.042 87.867c0 1.304-1.142 2.39-2.512 2.39s-2.512-1.086-2.512-2.39 1.142-2.391 2.512-2.391 2.512 1.087 2.512 2.39zM609.796 3.39c0 1.305-1.142 2.392-2.512 2.392-1.371 0-2.513-1.087-2.513-2.391S605.913 1 607.284 1c1.37 0 2.512 1.087 2.512 2.39zM276.135 222.477c0 1.305-1.142 2.391-2.512 2.391s-2.512-1.086-2.512-2.391c0-1.304 1.142-2.39 2.512-2.39s2.512 1.086 2.512 2.39zM632.405 166.764c0 1.304-1.142 2.391-2.512 2.391s-2.512-1.087-2.512-2.391 1.142-2.391 2.512-2.391 2.512 1.087 2.512 2.391z"/>
</svg>
