<svg xmlns="http://www.w3.org/2000/svg" width="26" height="26" fill="none" viewBox="0 0 26 26">
    <g fill="#515151" clip-path="url(#clip0)">
        <path d="M23.867 9.14h-7.142c.023-.25.035-.504.035-.76C16.76 3.76 13 0 8.38 0 6.908 0 5.46.387 4.193 1.12c-.243.14-.326.45-.186.693.14.243.451.326.694.186 1.113-.643 2.385-.983 3.679-.983 4.06 0 7.364 3.303 7.364 7.364 0 4.06-3.303 7.364-7.364 7.364-1.7 0-3.297-.563-4.618-1.628-.133-.107-.308-.139-.468-.09l-1.348.353.528-1.16c.076-.167.056-.362-.051-.51-.92-1.264-1.407-2.761-1.407-4.33 0-1.296.341-2.571.988-3.687.14-.243.058-.553-.185-.694-.242-.14-.553-.058-.694.185C.39 5.453 0 6.904 0 8.38c0 1.684.493 3.296 1.43 4.682L.58 14.93c-.082.178-.053.387.073.537.126.15.327.214.517.165l2.16-.565c1.447 1.093 3.23 1.693 5.05 1.693.396 0 .785-.028 1.167-.082v4.447c0 1.176.957 2.133 2.133 2.133h7.182l3.211 2.627c.092.076.206.115.322.115.073 0 .148-.016.217-.049.177-.084.29-.263.29-.459v-2.234h.965c1.176 0 2.133-.957 2.133-2.133v-9.852c0-1.176-.957-2.132-2.133-2.132zm1.117 11.985c0 .616-.5 1.117-1.117 1.117h-1.473c-.28 0-.507.227-.507.508v1.67l-2.508-2.052c-.139-.126-.26-.126-.532-.126H11.68c-.615 0-1.117-.501-1.117-1.117v-4.654c3.004-.811 5.345-3.254 6.008-6.315h7.297c.616 0 1.117.501 1.117 1.117v9.852z"/>
        <path d="M20.3 17.703c.173-.081.292-.256.292-.46 0-.28-.227-.507-.508-.507h-.208l-1.637-3.733c-.082-.184-.264-.303-.466-.303-.201 0-.384.119-.465.303l-1.637 3.733h-.208c-.28 0-.508.227-.508.508 0 .203.12.378.292.459l-.61 1.39c-.113.257.004.556.26.669.257.113.557-.004.67-.261l.767-1.75h2.879l.767 1.75c.084.19.27.304.466.304.068 0 .137-.014.203-.043.257-.113.374-.412.261-.67l-.61-1.39zm-3.52-.967l.993-2.265.994 2.265H16.78zM2.813 3.321c.134 0 .265-.054.36-.149.094-.094.148-.225.148-.359 0-.133-.054-.264-.149-.359-.094-.094-.225-.149-.359-.149-.134 0-.264.055-.359.15-.094.094-.148.225-.148.358 0 .134.054.265.148.36.095.094.226.148.36.148zM5.349 11.47c-.246.135-.336.444-.201.69.092.168.266.264.445.264.083 0 .166-.02.244-.063 1.133-.621 2.004-1.587 2.513-2.726.51 1.139 1.381 2.105 2.514 2.726.077.042.16.063.243.063.18 0 .354-.096.446-.264.135-.246.045-.555-.201-.69-1.326-.727-2.218-2.026-2.44-3.494h2.255c.28 0 .508-.227.508-.508 0-.28-.227-.508-.508-.508H8.858V4.844c0-.28-.227-.508-.508-.508-.28 0-.507.228-.507.508V6.96H6.008c-.28 0-.508.228-.508.508s.228.508.508.508h1.78c-.221 1.468-1.114 2.768-2.44 3.494z"/>
    </g>
    <defs>
        <clipPath id="clip0">
            <path fill="#fff" d="M0 0H26V26H0z"/>
        </clipPath>
    </defs>
</svg>
